{"title":"The Private Affairs of Bel Ami (1947) Webrip XviD-pong","uid":14159214,"size":752434916,"categoryP":"video","categoryS":"movies","magnet":"?xt=urn:btih:b26d4c3743452700803c96b1cb77604e5c03d2e9&amp;dn=The+Private+Affairs+of+Bel+Ami+%281947%29+Webrip+XviD-pong&amp;tr=udp%3A%2F%2Ftracker.leechers-paradise.org%3A6969&amp;tr=udp%3A%2F%2Fzer0day.ch%3A1337&amp;tr=udp%3A%2F%2Fopen.demonii.com%3A1337&amp;tr=udp%3A%2F%2Ftracker.coppersurfer.tk%3A6969&amp;tr=udp%3A%2F%2Fexodus.desync.com%3A6969","seeders":1,"leechers":0,"uploader":"Pongydog","files":1,"time":1459699025,"description":"Writer Georges Duroy (George Sanders) is one social-climbing S.O.B. who does most of his climbing over the warm (and cold) bodies of women. He begins with Rachel (Marie Wilson), a hanger-on... See full summary » \r\n\r\nDirector: Albert Lewin  \r\n\r\nWriter: Albert Lewin (screenplay)  \r\n\r\nStars: George Sanders,  Angela Lansbury,  Ann Dvorak  | \r\n\r\n \nhttp://www.imdb.com/title/tt0039735/\r\n\r\nGeneral\r\nComplete name                            : C:Usersuser1VideosThe Private Affairs of Bel Ami (1947) Webrip XviD-pong.avi\r\nFormat                                   : AVI\r\nFormat/Info                              : Audio Video Interleave\r\nFile size                                : 718 MiB\r\nDuration                                 : 1h 46mn\r\nOverall bit rate                         : 941 Kbps\r\nWriting application                      : Lavf55.23.103\r\n\r\nVideo\r\nID                                       : 0\r\nFormat                                   : MPEG-4 Visual\r\nFormat profile                           :   \r\nFormat settings, BVOP                    : No\r\nFormat settings, QPel                    : No\r\nFormat settings, GMC                     : No warppoints\r\nFormat settings, Matrix                  : Default (H.263)\r\nCodec ID                                 : XVID\r\nCodec ID/Hint                            : XviD\r\nDuration                                 : 1h 46mn\r\nBit rate                                 : 859 Kbps\r\nWidth                                    : 528 pixels\r\nHeight                                   : 396 pixels\r\nDisplay aspect ratio                     : 4:3\r\nFrame rate                               : 50.000 fps\r\nColor space                              : YUV\r\nChroma subsampling                       : 4:2:0\r\nBit depth                                : 8 bits\r\nScan type                                : Progressive\r\nCompression mode                         : Lossy\r\nBits/(Pixel*Frame)                       : 0.082\r\nStream size                              : 655 MiB (91%)\r\nWriting library                          : XviD 64\r\n\r\nAudio\r\nID                                       : 1\r\nFormat                                   : MPEG Audio\r\nFormat version                           : Version 1\r\nFormat profile                           : Layer 3\r\nCodec ID                                 : 55\r\nCodec ID/Hint                            : MP3\r\nDuration                                 : 1h 46mn\r\nBit rate mode                            : Constant\r\nBit rate                                 : 64.0 Kbps\r\nChannel(s)                               : 2 channels\r\nSampling rate                            : 48.0 KHz\r\nCompression mode                         : Lossy\r\nStream size                              : 48.8 MiB (7%)\r\nAlignment                                : Aligned on interleaves\r\nInterleave, duration                     : 24 ms (1.20 video frame)\r\nInterleave, preload duration             : 24 ms","torrent":{"xt":"urn:btih:b26d4c3743452700803c96b1cb77604e5c03d2e9","amp;dn":"The+Private+Affairs+of+Bel+Ami+%281947%29+Webrip+XviD-pong","amp;tr":["udp%3A%2F%2Ftracker.leechers-paradise.org%3A6969","udp%3A%2F%2Fzer0day.ch%3A1337","udp%3A%2F%2Fopen.demonii.com%3A1337","udp%3A%2F%2Ftracker.coppersurfer.tk%3A6969","udp%3A%2F%2Fexodus.desync.com%3A6969"],"infoHash":"b26d4c3743452700803c96b1cb77604e5c03d2e9","infoHashBuffer":{"type":"Buffer","data":[178,109,76,55,67,69,39,0,128,60,150,177,203,119,96,78,92,3,210,233]},"announce":[],"urlList":[]}}